<svg width="65" height="65" viewBox="0 0 65 65" fill="none" xmlns="http://www.w3.org/2000/svg">
<path d="M6.36246 51.2471L14.3365 43.281L22.3183 51.2471C22.5015 51.4307 22.7191 51.5764 22.9587 51.6758C23.1982 51.7752 23.455 51.8264 23.7144 51.8264C23.9737 51.8264 24.2306 51.7752 24.4701 51.6758C24.7097 51.5764 24.9273 51.4307 25.1104 51.2471L33.0687 43.281L41.0427 51.2471C41.2258 51.4307 41.4434 51.5764 41.683 51.6758C41.9225 51.7752 42.1793 51.8264 42.4387 51.8264C42.6981 51.8264 42.9549 51.7752 43.1944 51.6758C43.434 51.5764 43.6516 51.4307 43.8347 51.2471L51.8008 43.281L59.7748 51.2471C60.1539 51.5592 60.6358 51.7186 61.1262 51.6942C61.6166 51.6698 62.0802 51.4634 62.4264 51.1152C62.7726 50.767 62.9765 50.3022 62.9981 49.8116C63.0197 49.3211 62.8575 48.8402 62.5433 48.4629L53.1969 39.0928C53.0137 38.9092 52.7961 38.7635 52.5566 38.6641C52.317 38.5647 52.0602 38.5136 51.8008 38.5136C51.5415 38.5136 51.2847 38.5647 51.0451 38.6641C50.8056 38.7635 50.588 38.9092 50.4048 39.0928L42.4308 47.0668L34.4647 39.0928C34.2815 38.9092 34.0639 38.7635 33.8244 38.6641C33.5848 38.5647 33.328 38.5136 33.0687 38.5136C32.8093 38.5136 32.5525 38.5647 32.3129 38.6641C32.0734 38.7635 31.8558 38.9092 31.6726 39.0928L23.6986 47.0668L15.7325 39.0928C15.5493 38.9092 15.3317 38.7635 15.0922 38.6641C14.8526 38.5647 14.5958 38.5136 14.3365 38.5136C14.0771 38.5136 13.8203 38.5647 13.5807 38.6641C13.3412 38.7635 13.1236 38.9092 12.9404 39.0928L3.57826 48.4629C3.20801 48.8331 3 49.3353 3 49.8589C3 50.3826 3.20801 50.8847 3.57826 51.255C3.94851 51.6252 4.45068 51.8332 4.9743 51.8332C5.49792 51.8332 6.00009 51.6252 6.37034 51.255L6.36246 51.2471Z" fill="#BE8DAB"/>
<path d="M6.36246 26.7335L14.3365 18.7595L22.3183 26.7335C22.5015 26.9172 22.7191 27.0628 22.9587 27.1623C23.1982 27.2617 23.455 27.3128 23.7144 27.3128C23.9737 27.3128 24.2306 27.2617 24.4701 27.1623C24.7097 27.0628 24.9273 26.9172 25.1104 26.7335L33.0687 18.7595L41.0427 26.7335C41.2258 26.9172 41.4434 27.0628 41.683 27.1623C41.9225 27.2617 42.1793 27.3128 42.4387 27.3128C42.6981 27.3128 42.9549 27.2617 43.1944 27.1623C43.434 27.0628 43.6516 26.9172 43.8347 26.7335L51.8008 18.7595L59.7748 26.7335C60.1539 27.0456 60.6358 27.2051 61.1262 27.1807C61.6166 27.1563 62.0802 26.9498 62.4264 26.6016C62.7726 26.2534 62.9765 25.7886 62.9981 25.2981C63.0197 24.8076 62.8575 24.3266 62.5433 23.9493L53.1969 14.5793C53.0137 14.3957 52.7961 14.25 52.5566 14.1506C52.317 14.0512 52.0602 14 51.8008 14C51.5415 14 51.2847 14.0512 51.0451 14.1506C50.8056 14.25 50.588 14.3957 50.4048 14.5793L42.4308 22.5533L34.4647 14.5793C34.2815 14.3957 34.0639 14.25 33.8244 14.1506C33.5848 14.0512 33.328 14 33.0687 14C32.8093 14 32.5525 14.0512 32.3129 14.1506C32.0734 14.25 31.8558 14.3957 31.6726 14.5793L23.6986 22.5533L15.7325 14.5793C15.5493 14.3957 15.3317 14.25 15.0922 14.1506C14.8526 14.0512 14.5958 14 14.3365 14C14.0771 14 13.8203 14.0512 13.5807 14.1506C13.3412 14.25 13.1236 14.3957 12.9404 14.5793L3.57826 23.9493C3.20801 24.3196 3 24.8218 3 25.3454C3 25.869 3.20801 26.3712 3.57826 26.7414C3.94851 27.1117 4.45068 27.3197 4.9743 27.3197C5.49792 27.3197 6.00009 27.1117 6.37034 26.7414L6.36246 26.7335Z" fill="#BE8DAB"/>
</svg>
