<svg width="66" height="65" viewBox="0 0 66 65" fill="none" xmlns="http://www.w3.org/2000/svg">
<path d="M3.3541 24.6611C3.97845 24.6611 4.57722 24.4131 5.0187 23.9716C5.46018 23.5301 5.7082 22.9313 5.7082 22.307C5.79795 19.0239 7.16522 15.9054 9.51911 13.6149C11.873 11.3245 15.0277 10.043 18.3121 10.043C21.5964 10.043 24.7511 11.3245 27.105 13.6149C29.4589 15.9054 30.8262 19.0239 30.9159 22.307V58.1929C30.9159 58.8172 31.1639 59.416 31.6054 59.8575C32.0469 60.299 32.6457 60.547 33.27 60.547C33.8943 60.547 34.4931 60.299 34.9346 59.8575C35.3761 59.416 35.6241 58.8172 35.6241 58.1929V22.307C35.7138 19.0239 37.0811 15.9054 39.435 13.6149C41.7889 11.3245 44.9436 10.043 48.228 10.043C51.5123 10.043 54.667 11.3245 57.0209 13.6149C59.3748 15.9054 60.7421 19.0239 60.8318 22.307C60.8318 22.9313 61.0798 23.5301 61.5213 23.9716C61.9628 24.4131 62.5616 24.6611 63.1859 24.6611C63.8102 24.6611 64.409 24.4131 64.8505 23.9716C65.292 23.5301 65.54 22.9313 65.54 22.307C65.542 18.4998 64.2879 14.7983 61.9721 11.7763C59.6564 8.7544 56.4083 6.58088 52.7316 5.59276C49.0548 4.60464 45.1548 4.85713 41.6361 6.31107C38.1175 7.76502 35.1768 10.3392 33.27 13.6345C31.3632 10.3392 28.4225 7.76502 24.9039 6.31107C21.3852 4.85713 17.4852 4.60464 13.8084 5.59276C10.1317 6.58088 6.88364 8.7544 4.56788 11.7763C2.25211 14.7983 0.998007 18.4998 1 22.307C1 22.9313 1.24802 23.5301 1.6895 23.9716C2.13098 24.4131 2.72976 24.6611 3.3541 24.6611Z" fill="#BE8DAB"/>
</svg>
