<svg width="65" height="65" viewBox="0 0 65 65" fill="none" xmlns="http://www.w3.org/2000/svg">
<path d="M57.015 17.272C57.2164 17.4734 57.4556 17.6333 57.7189 17.7423C57.9821 17.8513 58.2643 17.9075 58.5492 17.9075C58.8341 17.9075 59.1163 17.8513 59.3795 17.7423C59.6428 17.6333 59.882 17.4734 60.0835 17.272C60.285 17.0705 60.4448 16.8313 60.5538 16.568C60.6629 16.3048 60.719 16.0226 60.719 15.7377C60.719 15.4528 60.6629 15.1706 60.5538 14.9074C60.4448 14.6441 60.285 14.4049 60.0835 14.2034C53.1613 7.29864 43.7959 3.40161 34.0189 3.3578C24.2418 3.31398 14.8418 7.12691 7.8581 13.9694C5.87561 15.5113 4.47238 17.6778 3.87615 20.1175C3.27993 22.5572 3.5257 25.1268 4.5736 27.4092C5.62149 29.6917 7.40999 31.553 9.64881 32.6911C11.8876 33.8291 14.4454 34.1772 16.9069 33.6788C19.3684 33.1803 21.5893 31.8646 23.2089 29.9452C24.8286 28.0257 25.7521 25.6153 25.8295 23.105C25.9069 20.5947 25.1336 18.1319 23.6352 16.1164C22.1368 14.1008 20.0012 12.6508 17.5751 12.0017C23.8188 8.43935 31.0596 7.02561 38.1848 7.97773C45.3101 8.92984 51.9256 12.1952 57.015 17.272ZM21.4757 22.7589C21.4722 23.9 21.1818 25.0219 20.6312 26.0214C20.0806 27.0209 19.2875 27.8659 18.3248 28.4786C17.3621 29.0913 16.2608 29.4521 15.1221 29.5277C13.9835 29.6033 12.8442 29.3913 11.8089 28.9113C10.7737 28.4313 9.87575 27.6986 9.19781 26.7807C8.51987 25.8628 8.08366 24.7891 7.92932 23.6585C7.77499 22.5278 7.90748 21.3765 8.31461 20.3105C8.72175 19.2444 9.39044 18.2979 10.2592 17.558C10.4034 17.4727 10.5372 17.3709 10.6579 17.2546C11.6717 16.5127 12.8713 16.0664 14.1234 15.9651C15.3756 15.8638 16.6313 16.1116 17.7512 16.681C18.871 17.2503 19.8111 18.1189 20.467 19.1903C21.123 20.2617 21.4692 21.4939 21.467 22.7502L21.4757 22.7589Z" fill="#BE8DAB"/>
<path d="M4.1808 52.5079C11.1018 59.4148 20.4677 63.3132 30.2454 63.3571C40.0231 63.4009 49.4235 59.5865 56.4062 52.7419C58.3879 51.1998 59.7905 49.0333 60.3863 46.5939C60.9821 44.1546 60.7361 41.5854 59.6883 39.3034C58.6405 37.0214 56.8523 35.1604 54.6139 34.0223C52.3755 32.8843 49.8183 32.536 47.357 33.0339C44.8958 33.5319 42.6751 34.8469 41.0551 36.7655C39.4351 38.6842 38.511 41.0939 38.4327 43.6038C38.3544 46.1136 39.1264 48.5763 40.6236 50.5923C42.1207 52.6082 44.2552 54.0591 46.6805 54.7096C40.4364 58.2705 33.1959 59.6835 26.0711 58.7314C18.9462 57.7793 12.3308 54.5149 7.24064 49.4394C7.03916 49.2379 6.79997 49.0781 6.53672 48.969C6.27347 48.86 5.99132 48.8039 5.70639 48.8039C5.42145 48.8039 5.1393 48.86 4.87605 48.969C4.6128 49.0781 4.37361 49.2379 4.17213 49.4394C3.97065 49.6409 3.81083 49.8801 3.70178 50.1433C3.59274 50.4066 3.53662 50.6887 3.53662 50.9736C3.53662 51.2586 3.59274 51.5407 3.70178 51.804C3.81083 52.0672 3.97065 52.3064 4.17213 52.5079H4.1808ZM42.7626 43.9611C42.766 42.82 43.0564 41.6981 43.607 40.6986C44.1577 39.6991 44.9508 38.8541 45.9135 38.2414C46.8762 37.6287 47.9775 37.2679 49.1161 37.1923C50.2547 37.1167 51.3941 37.3287 52.4293 37.8087C53.4646 38.2887 54.3625 39.0214 55.0405 39.9393C55.7184 40.8572 56.1546 41.9309 56.3089 43.0615C56.4633 44.1922 56.3308 45.3435 55.9236 46.4095C55.5165 47.4756 54.8478 48.4221 53.9791 49.162C53.8349 49.2473 53.701 49.3491 53.5804 49.4654C52.5666 50.2073 51.367 50.6537 50.1148 50.7549C48.8627 50.8562 47.6069 50.6084 46.4871 50.039C45.3673 49.4697 44.4272 48.6011 43.7712 47.5297C43.1153 46.4583 42.7691 45.2261 42.7712 43.9698L42.7626 43.9611Z" fill="#BE8DAB"/>
</svg>
