<svg width="65" height="65" viewBox="0 0 65 65" fill="none" xmlns="http://www.w3.org/2000/svg">
<path d="M24.7453 55.8491C24.2367 56.2149 23.8942 56.7677 23.7932 57.386C23.6922 58.0043 23.841 58.6374 24.2068 59.146C24.5726 59.6546 25.1254 59.9971 25.7437 60.0981C26.362 60.1991 26.9951 60.0503 27.5037 59.6845L39.18 51.2674C39.2303 53.7077 40.0938 56.0613 41.6337 57.9551C43.1736 59.8489 45.3017 61.1744 47.6804 61.7213C50.0592 62.2683 52.5524 62.0054 54.7648 60.9744C56.9772 59.9434 58.7821 58.2033 59.8931 56.03C61.0042 53.8567 61.3579 51.3747 60.8982 48.9776C60.4384 46.5804 59.1915 44.4054 57.3552 42.7974C55.5189 41.1894 53.1983 40.2405 50.7615 40.1012C48.3246 39.9619 45.911 40.6401 43.9034 42.0284V13.1777C43.8927 10.8628 43.1622 8.60848 41.8131 6.72726C40.464 4.84604 38.563 3.43109 36.3738 2.6785C34.1846 1.92592 31.8154 1.87299 29.5948 2.52703C27.3741 3.18108 25.4119 4.50971 23.9801 6.32879C22.5547 4.48687 20.5886 3.1372 18.3575 2.46901C16.1264 1.80082 13.7421 1.84762 11.539 2.60285C9.33578 3.35807 7.42419 4.78385 6.07221 6.68029C4.72022 8.57673 3.99563 10.8487 4.00002 13.1777C4.00002 13.8041 4.24884 14.4048 4.69175 14.8477C5.13465 15.2906 5.73536 15.5394 6.36173 15.5394C6.98809 15.5394 7.5888 15.2906 8.03171 14.8477C8.47461 14.4048 8.72343 13.8041 8.72343 13.1777C8.72343 11.4678 9.40272 9.82783 10.6119 8.6187C11.821 7.40956 13.4609 6.73028 15.1709 6.73028C16.8809 6.73028 18.5208 7.40956 19.7299 8.6187C20.9391 9.82783 21.6184 11.4678 21.6184 13.1777V37.7395C21.6184 38.3659 21.8672 38.9666 22.3101 39.4095C22.753 39.8524 23.3537 40.1012 23.9801 40.1012C24.6064 40.1012 25.2071 39.8524 25.65 39.4095C26.093 38.9666 26.3418 38.3659 26.3418 37.7395V13.1777C26.3418 11.4678 27.0211 9.82783 28.2302 8.6187C29.4393 7.40956 31.0793 6.73028 32.7892 6.73028C34.4992 6.73028 36.1391 7.40956 37.3483 8.6187C38.5574 9.82783 39.2367 11.4678 39.2367 13.1777V45.4198L24.7453 55.8491ZM43.9507 51.0595V50.2565C43.9972 49.8882 44.0762 49.5246 44.1868 49.1702C44.6534 47.6853 45.6576 46.4282 47.0027 45.6452C48.3479 44.8622 49.937 44.6098 51.4585 44.9374C52.9801 45.265 54.3244 46.1491 55.2281 47.4163C56.1318 48.6835 56.5297 50.2426 56.3437 51.7879C56.1578 53.3331 55.4014 54.7533 54.2229 55.77C53.0444 56.7866 51.5287 57.3265 49.9729 57.2838C48.417 57.2412 46.9332 56.619 45.8122 55.5392C44.6912 54.4595 44.0138 53 43.9129 51.4468C43.9356 51.3221 43.9483 51.1957 43.9507 51.069V51.0595Z" fill="#BE8DAB"/>
</svg>
