<svg width="65" height="65" viewBox="0 0 65 65" fill="none" xmlns="http://www.w3.org/2000/svg">
<path d="M4.35247 20.0951C4.59292 20.0951 4.83101 20.0478 5.05316 19.9557C5.2753 19.8637 5.47715 19.7289 5.64717 19.5588C5.8172 19.3888 5.95206 19.187 6.04408 18.9648C6.1361 18.7427 6.18346 18.5046 6.18346 18.2641C6.18346 17.0462 6.66726 15.8782 7.52845 15.017C8.38964 14.1558 9.55766 13.672 10.7756 13.672C11.9935 13.672 13.1615 14.1558 14.0227 15.017C14.8839 15.8782 15.3677 17.0462 15.3677 18.2641V36.1931C15.3677 36.6787 15.5606 37.1445 15.904 37.4878C16.2473 37.8312 16.713 38.0241 17.1987 38.0241C17.6843 38.0241 18.15 37.8312 18.4934 37.4878C18.8367 37.1445 19.0296 36.6787 19.0296 36.1931V18.2641C19.0296 17.0462 19.5135 15.8782 20.3746 15.017C21.2358 14.1558 22.4038 13.672 23.6217 13.672C24.8397 13.672 26.0077 14.1558 26.8689 15.017C27.73 15.8782 28.2139 17.0462 28.2139 18.2641V36.1931C28.2139 36.6787 28.4068 37.1445 28.7501 37.4878C29.0935 37.8312 29.5592 38.0241 30.0448 38.0241C30.5305 38.0241 30.9962 37.8312 31.3395 37.4878C31.6829 37.1445 31.8758 36.6787 31.8758 36.1931V18.2641C31.8758 17.0462 32.3596 15.8782 33.2208 15.017C34.082 14.1558 35.25 13.672 36.4679 13.672C37.6858 13.672 38.8539 14.1558 39.715 15.017C40.5762 15.8782 41.06 17.0462 41.06 18.2641V45.89C41.06 48.2093 41.9814 50.4335 43.6213 52.0735C45.2613 53.7135 47.4856 54.6348 49.8048 54.6348C52.1241 54.6348 54.3484 53.7135 55.9883 52.0735C57.6283 50.4335 58.5496 48.2093 58.5496 45.89L59.4504 46.7909C59.6207 46.9611 59.8228 47.0961 60.0452 47.1883C60.2676 47.2804 60.506 47.3278 60.7468 47.3278C60.9875 47.3278 61.2259 47.2804 61.4484 47.1883C61.6708 47.0961 61.8729 46.9611 62.0431 46.7909C62.2134 46.6206 62.3484 46.4185 62.4405 46.1961C62.5327 45.9737 62.5801 45.7353 62.5801 45.4945C62.5801 45.2538 62.5327 45.0154 62.4405 44.793C62.3484 44.5705 62.2134 44.3684 62.0431 44.1982L58.015 40.17C57.6651 39.8377 57.2011 39.6525 56.7186 39.6525C56.2361 39.6525 55.7721 39.8377 55.4223 40.17L51.3941 44.1982C51.0503 44.542 50.8572 45.0083 50.8572 45.4945C50.8572 45.9807 51.0503 46.4471 51.3941 46.7909C51.7379 47.1347 52.2042 47.3278 52.6905 47.3278C53.1767 47.3278 53.643 47.1347 53.9868 46.7909L54.8876 45.89C54.8876 47.2381 54.3521 48.5309 53.3989 49.4841C52.4457 50.4373 51.1529 50.9728 49.8048 50.9728C48.4568 50.9728 47.1639 50.4373 46.2107 49.4841C45.2575 48.5309 44.722 47.2381 44.722 45.89V18.2641C44.7161 16.563 44.1842 14.9053 43.1993 13.5182C42.2143 12.1312 40.8246 11.0827 39.2204 10.5164C37.6162 9.95012 35.8762 9.8938 34.2388 10.3552C32.6014 10.8165 31.1467 11.773 30.0741 13.0934C29.3028 12.1312 28.3252 11.3546 27.2134 10.821C26.1017 10.2873 24.8842 10.0103 23.651 10.0103C22.4179 10.0103 21.2004 10.2873 20.0887 10.821C18.9769 11.3546 17.9993 12.1312 17.228 13.0934C16.1554 11.773 14.7007 10.8165 13.0633 10.3552C11.4259 9.8938 9.68585 9.95012 8.08169 10.5164C6.47753 11.0827 5.08774 12.1312 4.10281 13.5182C3.11788 14.9053 2.586 16.563 2.58008 18.2641C2.57983 18.7398 2.76468 19.1968 3.09548 19.5385C3.42629 19.8803 3.87709 20.0799 4.35247 20.0951Z" fill="#BE8DAB"/>
</svg>
