<svg width="65" height="65" viewBox="0 0 65 65" fill="none" xmlns="http://www.w3.org/2000/svg">
<path d="M44.7797 12.8394C47.9066 11.4588 50.7515 9.51249 53.1712 7.0983C53.5666 6.64351 53.7757 6.05625 53.7568 5.45393C53.7379 4.8516 53.4924 4.2786 53.0693 3.84947C52.6463 3.42035 52.0768 3.16672 51.4748 3.13929C50.8728 3.11186 50.2826 3.31264 49.8223 3.70152C45.4831 8.03059 39.604 10.4618 33.4746 10.4618C27.3453 10.4618 21.4662 8.03059 17.127 3.70152C16.6778 3.25234 16.0686 3 15.4334 3C14.7982 3 14.189 3.25234 13.7398 3.70152C13.2906 4.15069 13.0383 4.7599 13.0383 5.39513C13.0383 6.03035 13.2906 6.63956 13.7398 7.08874C16.1566 9.50195 18.9982 11.4482 22.1217 12.8298V52.8832C22.1159 52.9788 22.1159 53.0746 22.1217 53.1702C18.9846 54.5477 16.1297 56.4942 13.7015 58.9113C13.2523 59.3604 13 59.9697 13 60.6049C13 61.2401 13.2523 61.8493 13.7015 62.2985C14.1507 62.7477 14.7599 63 15.3951 63C16.0304 63 16.6396 62.7477 17.0887 62.2985C19.2393 60.1504 21.7919 58.447 24.6008 57.2854C27.4097 56.1238 30.4199 55.5269 33.4595 55.5287C36.4991 55.5304 39.5085 56.1309 42.3161 57.2958C45.1236 58.4606 47.6742 60.167 49.8223 62.3176C50.2829 62.6631 50.8527 62.8308 51.4271 62.79C52.0015 62.7492 52.5419 62.5026 52.949 62.0954C53.3562 61.6883 53.6028 61.1479 53.6436 60.5735C53.6844 59.9991 53.5167 59.4293 53.1712 58.9687C50.743 56.5516 47.8881 54.6051 44.751 53.2276C44.7569 53.132 44.7569 53.0362 44.751 52.9406L44.7797 12.8394ZM39.9955 51.5532C35.6839 50.519 31.1888 50.519 26.8772 51.5532V14.466C31.1885 15.5027 35.6842 15.5027 39.9955 14.466V51.5532Z" fill="#BE8DAB"/>
</svg>
