<svg width="65" height="65" viewBox="0 0 65 65" fill="none" xmlns="http://www.w3.org/2000/svg">
<path d="M12.6601 48.2949C15.5463 48.2419 18.2938 47.0472 20.3009 44.9725C22.308 42.8978 23.411 40.1121 23.3683 37.2258C23.3683 37.167 23.3683 37.1083 23.3683 37.0495C23.3683 36.9908 23.3683 36.9908 23.3683 36.9656V18.0667C23.3186 16.0088 24.0848 14.0147 25.4997 12.5196C26.9147 11.0244 28.8636 10.1496 30.9211 10.0859C32.9787 10.1496 34.9276 11.0244 36.3425 12.5196C37.7575 14.0147 38.5237 16.0088 38.474 18.0667V44.5101C38.474 47.6316 39.714 50.6253 41.9213 52.8326C44.1286 55.0399 47.1223 56.2799 50.2438 56.2799C53.3654 56.2799 56.3591 55.0399 58.5664 52.8326C60.7736 50.6253 62.0137 47.6316 62.0137 44.5101C62.0137 43.9537 61.7926 43.42 61.3992 43.0266C61.0057 42.6331 60.4721 42.4121 59.9157 42.4121C59.3592 42.4121 58.8256 42.6331 58.4321 43.0266C58.0387 43.42 57.8176 43.9537 57.8176 44.5101C57.8176 45.5047 57.6217 46.4896 57.2411 47.4085C56.8605 48.3274 56.3026 49.1623 55.5993 49.8656C54.896 50.5689 54.0611 51.1268 53.1422 51.5074C52.2233 51.888 51.2384 52.0839 50.2438 52.0839C49.2492 52.0839 48.2644 51.888 47.3455 51.5074C46.4266 51.1268 45.5916 50.5689 44.8883 49.8656C44.185 49.1623 43.6272 48.3274 43.2465 47.4085C42.8659 46.4896 42.67 45.5047 42.67 44.5101V18.0667C42.7195 14.8961 41.5111 11.8349 39.3093 9.55292C37.1075 7.27091 34.0915 5.95386 30.9211 5.88989C27.7508 5.95386 24.7348 7.27091 22.533 9.55292C20.3312 11.8349 19.1228 14.8961 19.1723 18.0667V28.4561C17.3308 26.9592 15.0332 26.1361 12.6601 26.1231C9.79894 26.2345 7.0921 27.4495 5.10723 29.5132C3.12236 31.5768 2.01367 34.3289 2.01367 37.1922C2.01367 40.0555 3.12236 42.8076 5.10723 44.8713C7.0921 46.9349 9.79894 48.1499 12.6601 48.2613V48.2949ZM12.6601 30.3191C14.4242 30.4063 16.0872 31.1685 17.3049 32.4479C18.5226 33.7273 19.2018 35.426 19.2018 37.1922C19.2018 38.9585 18.5226 40.6571 17.3049 41.9365C16.0872 43.2159 14.4242 43.9781 12.6601 44.0653C10.896 43.9781 9.23291 43.2159 8.0152 41.9365C6.79748 40.6571 6.11833 38.9585 6.11833 37.1922C6.11833 35.426 6.79748 33.7273 8.0152 32.4479C9.23291 31.1685 10.896 30.4063 12.6601 30.3191Z" fill="#BE8DAB"/>
</svg>
