<svg width="65" height="65" viewBox="0 0 65 65" fill="none" xmlns="http://www.w3.org/2000/svg">
<path d="M4.45218 57.7789H59.5478C60.1982 57.7789 60.8219 57.5205 61.2818 57.0606C61.7416 56.6008 62 55.977 62 55.3267C62 54.6763 61.7416 54.0526 61.2818 53.5927C60.8219 53.1328 60.1982 52.8745 59.5478 52.8745H4.45218C3.80182 52.8745 3.1781 53.1328 2.71823 53.5927C2.25835 54.0526 2 54.6763 2 55.3267C2 55.977 2.25835 56.6008 2.71823 57.0606C3.1781 57.5205 3.80182 57.7789 4.45218 57.7789Z" fill="#BE8DAB"/>
<path d="M4.45218 46.4693H17.6842C18.1698 46.4701 18.6447 46.3268 19.0488 46.0574C19.4529 45.788 19.7679 45.4047 19.9538 44.9561C20.1398 44.5075 20.1884 44.0137 20.0934 43.5375C19.9984 43.0612 19.7641 42.6239 19.4203 42.2809C16.9347 39.7934 15.2424 36.6247 14.5574 33.1754C13.8724 29.7262 14.2254 26.1513 15.5718 22.9027C16.9182 19.6541 19.1975 16.8776 22.1217 14.9242C25.0458 12.9707 28.4834 11.9281 32 11.9281C35.5166 11.9281 38.9542 12.9707 41.8783 14.9242C44.8025 16.8776 47.0818 19.6541 48.4282 22.9027C49.7746 26.1513 50.1276 29.7262 49.4426 33.1754C48.7576 36.6247 47.0653 39.7934 44.5797 42.2809C44.2359 42.6239 44.0016 43.0612 43.9066 43.5375C43.8116 44.0137 43.8602 44.5075 44.0462 44.9561C44.2321 45.4047 44.5471 45.788 44.9512 46.0574C45.3553 46.3268 45.8302 46.4701 46.3158 46.4693H59.5478C60.1982 46.4693 60.8219 46.2109 61.2818 45.751C61.7416 45.2912 62 44.6675 62 44.0171C62 43.3667 61.7416 42.743 61.2818 42.2831C60.8219 41.8233 60.1982 41.5649 59.5478 41.5649H51.3477C53.4577 38.125 54.6124 34.1848 54.6929 30.1502C54.7734 26.1156 53.7768 22.1324 51.8057 18.6111C49.8347 15.0898 46.9605 12.1577 43.4792 10.1168C39.9979 8.07587 36.0354 7 32 7C27.9646 7 24.0021 8.07587 20.5208 10.1168C17.0395 12.1577 14.1653 15.0898 12.1943 18.6111C10.2232 22.1324 9.22661 26.1156 9.30712 30.1502C9.38762 34.1848 10.5423 38.125 12.6523 41.5649H4.45218C3.80182 41.5649 3.1781 41.8233 2.71823 42.2831C2.25835 42.743 2 43.3667 2 44.0171C2 44.6675 2.25835 45.2912 2.71823 45.751C3.1781 46.2109 3.80182 46.4693 4.45218 46.4693Z" fill="#BE8DAB"/>
</svg>
