<svg width="65" height="65" viewBox="0 0 65 65" fill="none" xmlns="http://www.w3.org/2000/svg">
<path d="M59.73 33.2232C59.73 32.5601 59.4666 31.9242 58.9978 31.4554C58.5289 30.9865 57.893 30.7232 57.23 30.7232H47.33C47.9001 23.7493 50.9388 17.2074 55.9 12.2732C56.1324 12.0407 56.3168 11.7648 56.4426 11.4611C56.5684 11.1574 56.6332 10.8319 56.6332 10.5032C56.6332 10.1744 56.5684 9.84894 56.4426 9.54524C56.3168 9.24154 56.1324 8.9656 55.9 8.73316C55.6676 8.50072 55.3916 8.31634 55.0879 8.19054C54.7842 8.06474 54.4587 8 54.13 8C53.8013 8 53.4758 8.06474 53.1721 8.19054C52.8684 8.31634 52.5924 8.50072 52.36 8.73316C46.4727 14.6137 42.9195 22.4309 42.36 30.7332H23.36C22.7907 22.4334 19.239 14.6195 13.36 8.73316C12.8906 8.26372 12.2539 8 11.59 8C10.9261 8 10.2894 8.26372 9.82 8.73316C9.35057 9.20259 9.08684 9.83928 9.08684 10.5032C9.08684 11.167 9.35057 11.8037 9.82 12.2732C14.7673 17.215 17.7976 23.754 18.37 30.7232H8.5C7.83696 30.7232 7.20107 30.9865 6.73223 31.4554C6.26339 31.9242 6 32.5601 6 33.2232C6 33.8862 6.26339 34.5221 6.73223 34.9909C7.20107 35.4598 7.83696 35.7232 8.5 35.7232H18.35C17.7776 42.6923 14.7473 49.2313 9.8 54.1732C9.56756 54.4056 9.38318 54.6815 9.25738 54.9852C9.13159 55.2889 9.06684 55.6144 9.06684 55.9432C9.06684 56.2719 9.13159 56.5974 9.25738 56.9011C9.38318 57.2048 9.56756 57.4807 9.8 57.7132C10.0324 57.9456 10.3084 58.13 10.6121 58.2558C10.9158 58.3816 11.2413 58.4463 11.57 58.4463C11.8987 58.4463 12.2242 58.3816 12.5279 58.2558C12.8316 58.13 13.1076 57.9456 13.34 57.7132C19.219 51.8268 22.7707 44.013 23.34 35.7132H42.34C42.8995 44.0154 46.4527 51.8326 52.34 57.7132C52.8094 58.1826 53.4461 58.4463 54.11 58.4463C54.7739 58.4463 55.4106 58.1826 55.88 57.7132C56.3494 57.2437 56.6132 56.607 56.6132 55.9432C56.6132 55.2793 56.3494 54.6426 55.88 54.1732C50.9262 49.2359 47.8947 42.6944 47.33 35.7232H57.19C57.5217 35.7285 57.8511 35.6677 58.159 35.5445C58.4669 35.4212 58.7473 35.2379 58.9837 35.0052C59.2201 34.7725 59.4078 34.4951 59.5359 34.1892C59.6641 33.8832 59.73 33.5549 59.73 33.2232Z" fill="#BE8DAB"/>
</svg>
