<svg width="65" height="65" viewBox="0 0 65 65" fill="none" xmlns="http://www.w3.org/2000/svg">
<path d="M46.8632 37.9357C47.187 38.0091 47.5223 38.0172 47.8493 37.9595C48.1764 37.9019 48.4887 37.7796 48.768 37.6C49.0473 37.4203 49.2879 37.1868 49.476 36.9131C49.664 36.6393 49.7956 36.3309 49.8632 36.0057L54.6832 13.0057C54.7041 12.8197 54.7041 12.6318 54.6832 12.4457C54.6832 12.3957 54.6832 12.3357 54.6832 12.2857C54.6708 12.1507 54.6473 12.0169 54.6132 11.8857L54.5632 11.7057C54.52 11.5782 54.4665 11.4545 54.4032 11.3357L54.3232 11.1857C54.1251 10.8523 53.8466 10.5738 53.5132 10.3757L53.3732 10.2957C53.2544 10.2324 53.1306 10.1789 53.0032 10.1357L52.8232 10.0857C52.692 10.0515 52.5582 10.0281 52.4232 10.0157H52.2632C52.0771 9.99476 51.8892 9.99476 51.7032 10.0157L28.7032 14.8357C28.3658 14.8841 28.0419 15.0009 27.7514 15.179C27.4608 15.3571 27.2098 15.5927 27.0136 15.8714C26.8174 16.1501 26.6803 16.4659 26.6107 16.7995C26.541 17.1331 26.5403 17.4774 26.6086 17.8113C26.6769 18.1452 26.8127 18.4616 27.0077 18.7411C27.2027 19.0205 27.4528 19.2572 27.7427 19.4365C28.0325 19.6158 28.3559 19.7339 28.693 19.7837C29.0302 19.8334 29.3739 19.8137 29.7032 19.7257L44.5032 16.6257L21.1032 40.0257L14.2732 33.1957C14.0407 32.9633 13.7648 32.7789 13.4611 32.6531C13.1574 32.5273 12.8319 32.4626 12.5032 32.4626C12.1744 32.4626 11.8489 32.5273 11.5452 32.6531C11.2415 32.7789 10.9656 32.9633 10.7332 33.1957C10.5007 33.4282 10.3163 33.7041 10.1905 34.0078C10.0647 34.3115 10 34.637 10 34.9657C10 35.2944 10.0647 35.62 10.1905 35.9236C10.3163 36.2273 10.5007 36.5033 10.7332 36.7357L17.5632 43.5657L11.4732 49.6557C11.2407 49.8882 11.0563 50.1641 10.9305 50.4678C10.8047 50.7715 10.74 51.097 10.74 51.4257C10.74 51.7544 10.8047 52.0799 10.9305 52.3836C11.0563 52.6873 11.2407 52.9633 11.4732 53.1957C11.7056 53.4282 11.9815 53.6126 12.2852 53.7383C12.5889 53.8641 12.9144 53.9289 13.2432 53.9289C13.5719 53.9289 13.8974 53.8641 14.2011 53.7383C14.5048 53.6126 14.7807 53.4282 15.0132 53.1957L21.1032 47.1057L27.9332 53.9357C28.4026 54.4052 29.0393 54.6689 29.7032 54.6689C30.367 54.6689 31.0037 54.4052 31.4732 53.9357C31.9426 53.4663 32.2063 52.8296 32.2063 52.1657C32.2063 51.5019 31.9426 50.8652 31.4732 50.3957L24.6432 43.5657L48.0432 20.1657L44.9332 35.0057C44.8058 35.6497 44.9367 36.3179 45.2979 36.8662C45.659 37.4144 46.2212 37.7985 46.8632 37.9357Z" fill="#BE8DAB"/>
</svg>
