<svg width="65" height="66" viewBox="0 0 65 66" fill="none" xmlns="http://www.w3.org/2000/svg">
<path d="M53.34 6.5C53.34 5.83696 53.0766 5.20107 52.6078 4.73223C52.1389 4.26339 51.5031 4 50.84 4C50.177 4 49.5411 4.26339 49.0723 4.73223C48.6034 5.20107 48.34 5.83696 48.34 6.5C48.2351 10.7176 46.486 14.7272 43.4659 17.6731C40.4458 20.619 36.3939 22.2679 32.175 22.2679C27.9561 22.2679 23.9042 20.619 20.8842 17.6731C17.8641 14.7272 16.1149 10.7176 16.01 6.5C16.01 5.83696 15.7466 5.20107 15.2778 4.73223C14.8089 4.26339 14.1731 4 13.51 4C12.847 4 12.2111 4.26339 11.7422 4.73223C11.2734 5.20107 11.01 5.83696 11.01 6.5C11.0139 10.3326 12.0576 14.0924 14.03 17.3785C16.0024 20.6647 18.8295 23.3541 22.21 25.16C18.0437 27.3813 14.7396 30.9317 12.8229 35.2466C10.9062 39.5615 10.4869 44.3933 11.6318 48.9739C12.7766 53.5544 15.4198 57.6208 19.1412 60.5266C22.8626 63.4323 27.4486 65.0107 32.17 65.0107C36.8915 65.0107 41.4774 63.4323 45.1988 60.5266C48.9202 57.6208 51.5634 53.5544 52.7083 48.9739C53.8531 44.3933 53.4338 39.5615 51.5171 35.2466C49.6004 30.9317 46.2963 27.3813 42.13 25.16C45.5124 23.3554 48.3415 20.6666 50.3157 17.3804C52.2899 14.0941 53.3352 10.3337 53.34 6.5ZM48.34 43.83C48.34 47.0281 47.3917 50.1544 45.6149 52.8136C43.8381 55.4727 41.3127 57.5453 38.358 58.7691C35.4033 59.993 32.1521 60.3132 29.0154 59.6893C25.8787 59.0654 22.9975 57.5253 20.7361 55.2639C18.4747 53.0025 16.9346 50.1213 16.3107 46.9846C15.6868 43.8479 16.007 40.5967 17.2309 37.642C18.4548 34.6873 20.5273 32.1619 23.1864 30.3851C25.8456 28.6084 28.9719 27.66 32.17 27.66C36.4569 27.6653 40.5668 29.3706 43.5981 32.4019C46.6294 35.4332 48.3347 39.5431 48.34 43.83Z" fill="#BE8DAB"/>
</svg>
