<svg width="65" height="65" viewBox="0 0 65 65" fill="none" xmlns="http://www.w3.org/2000/svg">
<path d="M39.6075 9.01136C38.2664 9.01288 36.9433 9.32119 35.7397 9.91268C34.536 10.5042 33.4836 11.3632 32.663 12.424C31.843 11.3616 30.7902 10.5014 29.5857 9.90956C28.3811 9.31771 27.0569 9.00995 25.7148 9.00995C24.3728 9.00995 23.0486 9.31771 21.844 9.90956C20.6395 10.5014 19.5867 11.3616 18.7667 12.424C17.6433 10.9681 16.0921 9.90079 14.3309 9.37187C12.5697 8.84295 10.6871 8.87905 8.94752 9.47508C7.20792 10.0711 5.69875 11.1971 4.63201 12.695C3.56526 14.1928 2.99455 15.9872 3.00004 17.8261C3.00004 18.3201 3.1963 18.7939 3.54564 19.1433C3.89498 19.4926 4.36878 19.6889 4.86282 19.6889C5.35687 19.6889 5.83067 19.4926 6.18001 19.1433C6.52935 18.7939 6.72561 18.3201 6.72561 17.8261C6.72561 17.1582 6.85715 16.497 7.11271 15.88C7.36828 15.263 7.74287 14.7024 8.21509 14.2301C8.68731 13.7579 9.24793 13.3833 9.86491 13.1278C10.4819 12.8722 11.1432 12.7407 11.811 12.7407C12.4788 12.7407 13.1401 12.8722 13.7571 13.1278C14.3741 13.3833 14.9347 13.7579 15.4069 14.2301C15.8792 14.7024 16.2538 15.263 16.5093 15.88C16.7649 16.497 16.8964 17.1582 16.8964 17.8261V37.199C16.8964 37.6931 17.0927 38.1669 17.442 38.5162C17.7914 38.8656 18.2652 39.0618 18.7592 39.0618C19.2532 39.0618 19.7271 38.8656 20.0764 38.5162C20.4257 38.1669 20.622 37.6931 20.622 37.199V17.8261C20.622 16.4773 21.1578 15.1838 22.1115 14.2301C23.0652 13.2764 24.3587 12.7407 25.7074 12.7407C27.0561 12.7407 28.3496 13.2764 29.3033 14.2301C30.257 15.1838 30.7928 16.4773 30.7928 17.8261V37.199C30.7928 37.6931 30.9891 38.1669 31.3384 38.5162C31.6877 38.8656 32.1615 39.0618 32.6556 39.0618C33.1496 39.0618 33.6234 38.8656 33.9728 38.5162C34.3221 38.1669 34.5184 37.6931 34.5184 37.199V17.8261C34.5184 16.4773 35.0542 15.1838 36.0079 14.2301C36.9616 13.2764 38.255 12.7407 39.6038 12.7407C40.9525 12.7407 42.246 13.2764 43.1997 14.2301C44.1534 15.1838 44.6892 16.4773 44.6892 17.8261V21.7528C44.6838 21.8347 44.6838 21.9168 44.6892 21.9987V45.2835L36.8133 53.1594C36.6401 53.3326 36.5027 53.5382 36.409 53.7645C36.3153 53.9908 36.267 54.2333 36.267 54.4782C36.267 54.7232 36.3153 54.9657 36.409 55.192C36.5027 55.4183 36.6401 55.6239 36.8133 55.7971C36.9865 55.9703 37.1921 56.1077 37.4184 56.2014C37.6447 56.2951 37.8872 56.3434 38.1322 56.3434C38.3771 56.3434 38.6196 56.2951 38.8459 56.2014C39.0722 56.1077 39.2778 55.9703 39.451 55.7971L45.0617 50.1864C45.653 52.1755 46.9413 53.885 48.6906 55.0014C50.4398 56.1178 52.5328 56.5664 54.586 56.2649C56.6391 55.9635 58.5148 54.9322 59.8694 53.36C61.2239 51.7879 61.9664 49.7803 61.9609 47.7052C61.9609 47.2111 61.7647 46.7373 61.4153 46.388C61.066 46.0386 60.5922 45.8424 60.0981 45.8424C59.6041 45.8424 59.1303 46.0386 58.781 46.388C58.4316 46.7373 58.2354 47.2111 58.2354 47.7052C58.2354 49.0065 57.7184 50.2545 56.7983 51.1746C55.8781 52.0948 54.6301 52.6117 53.3288 52.6117C52.0275 52.6117 50.7795 52.0948 49.8593 51.1746C48.9392 50.2545 48.4222 49.0065 48.4222 47.7052V46.8259L59.9715 35.2766C61.6796 33.556 62.7351 31.2941 62.9564 28.8797C63.1778 26.4653 62.5512 24.0492 61.1844 22.0467C59.8177 20.0441 57.796 18.5802 55.467 17.9065C53.138 17.2328 50.647 17.3914 48.4222 18.3551V17.8261C48.4202 15.4889 47.4909 13.248 45.8383 11.5953C44.1856 9.94266 41.9447 9.01334 39.6075 9.01136ZM52.5948 21.2014C53.9188 21.2041 55.2123 21.5985 56.3125 22.3351C57.4126 23.0717 58.2701 24.1174 58.7768 25.3405C59.2836 26.5636 59.417 27.9094 59.1602 29.2082C58.9034 30.507 58.2679 31.7007 57.3338 32.6389L48.3924 41.5803V22.6693C49.5829 21.7115 51.0669 21.1931 52.5948 21.2014Z" fill="#BE8DAB"/>
</svg>
